<svg width="40" height="40" viewBox="0 0 40 40" fill="none" xmlns="http://www.w3.org/2000/svg">
<g opacity="0.5">
<path d="M22.1998 10.4883C22.3535 10.3291 22.5375 10.2022 22.7408 10.1148C22.9441 10.0275 23.1628 9.98148 23.3841 9.97956C23.6054 9.97763 23.8249 10.0198 24.0297 10.1036C24.2346 10.1874 24.4206 10.3112 24.5771 10.4676C24.7336 10.6241 24.8574 10.8102 24.9412 11.015C25.025 11.2199 25.0671 11.4393 25.0652 11.6606C25.0633 11.8819 25.0173 12.1006 24.93 12.304C24.8426 12.5073 24.7157 12.6912 24.5565 12.845L17.4015 20L24.5565 27.155C24.8601 27.4693 25.0281 27.8903 25.0243 28.3273C25.0205 28.7643 24.8452 29.1823 24.5362 29.4913C24.2272 29.8004 23.8091 29.9756 23.3721 29.9794C22.9351 29.9832 22.5141 29.8152 22.1998 29.5116L15.0448 22.3566C14.4199 21.7315 14.0688 20.8839 14.0688 20C14.0688 19.1161 14.4199 18.2684 15.0448 17.6433L22.1998 10.4883Z" fill="white"/>
</g>
</svg>
