<svg width="20" height="20" viewBox="0 0 20 20" fill="none" xmlns="http://www.w3.org/2000/svg">
<path fill-rule="evenodd" clip-rule="evenodd" d="M13 7.954C13 9.155 12.135 9.57 11.48 10.354C11.175 10.72 11.175 11.289 11 11.68C10.806 12.114 10.16 12 10 12C9.73478 12 9.48043 11.8946 9.29289 11.7071C9.10536 11.5196 9 11.2652 9 11C9 10.013 9.45 9.52 10.325 9.064C10.435 9.007 11 8.642 11 8.143C11 7.497 10.536 7 10 7C9.38 7 9 7.281 9 7.5V8.352H7.143C7.048 8.152 7 7.868 7 7.5C7 6.024 8.384 5 10 5C11.673 5 13 6.233 13 7.954ZM10 15C9.73478 15 9.48043 14.8946 9.29289 14.7071C9.10536 14.5196 9 14.2652 9 14C9 13.7348 9.10536 13.4804 9.29289 13.2929C9.48043 13.1054 9.73478 13 10 13C10.2652 13 10.5196 13.1054 10.7071 13.2929C10.8946 13.4804 11 13.7348 11 14C11 14.2652 10.8946 14.5196 10.7071 14.7071C10.5196 14.8946 10.2652 15 10 15Z" fill="#B2B8BF"/>
<circle cx="10" cy="10" r="9" stroke="#B2B8BF" stroke-width="2"/>
</svg>
