<svg width="20" height="20" viewBox="0 0 20 20" fill="none" xmlns="http://www.w3.org/2000/svg">
<path d="M5.6822 4.2675C5.29168 3.87698 4.65852 3.87698 4.26799 4.2675C3.87747 4.65803 3.87747 5.29119 4.26799 5.68172L8.58603 9.99976L4.26803 14.3178C3.8775 14.7083 3.8775 15.3414 4.26803 15.732C4.65855 16.1225 5.29172 16.1225 5.68224 15.732L10.0002 11.414L14.3182 15.732C14.7088 16.1225 15.3419 16.1225 15.7325 15.732C16.123 15.3414 16.123 14.7083 15.7325 14.3178L11.4145 9.99976L15.7325 5.68172C16.123 5.29119 16.123 4.65803 15.7325 4.2675C15.342 3.87698 14.7088 3.87698 14.3183 4.2675L10.0002 8.58554L5.6822 4.2675Z" fill="#B2B8BF"/>
</svg>
