<svg width="200" height="33" viewBox="0 0 200 33" fill="none" xmlns="http://www.w3.org/2000/svg">
<g clip-path="url(#clip0_2098_4942)">
<path d="M131.01 11.5734H141.182V13.2707H132.921V16.6653H135.831C139.993 16.6653 142.116 18.1503 142.116 21.4815C142.116 24.8126 139.887 26.4257 135.831 26.4257H131.01V11.5723V11.5734ZM132.921 18.3638V24.7284H135.768C138.592 24.7284 140.121 23.8376 140.121 21.3546C140.121 19.1265 138.762 18.3627 135.704 18.3627H132.921V18.3638Z" fill="#21A19A"/>
<path d="M144.977 26.427V15.8174H146.74V23.7108L152.729 15.8174H154.28V26.427H152.516V18.4701L146.74 26.172L146.549 26.427H144.977Z" fill="#21A19A"/>
<path d="M157.035 23.2856C157.629 24.3045 158.987 25.111 160.92 25.111C162.385 25.0891 163.447 24.496 163.447 23.3064C163.447 22.1826 162.576 21.7787 160.92 21.7787H159.328V20.378H160.603C161.941 20.378 162.896 19.8691 162.896 18.6806C162.896 17.6826 162.386 17.1749 161.028 17.131C159.372 17.131 157.97 17.9376 157.142 19.126V16.6222C157.949 16.0914 159.393 15.6045 161.028 15.6045H161.069C163.766 15.6045 164.68 16.6868 164.68 18.3622C164.68 19.6995 164.085 20.2926 163.045 20.7818C164.446 21.0576 165.211 21.7995 165.211 23.2014C165.211 25.5991 163.277 26.6376 160.921 26.6376C158.947 26.6376 157.588 26.0018 157.036 25.343V23.2845L157.035 23.2856Z" fill="#21A19A"/>
<path d="M175.228 21.8439H169.623V26.427H167.859V15.8174H169.623V20.2528H175.228V15.8174H176.991V26.427H175.228V21.8439Z" fill="#21A19A"/>
<path d="M189.514 20.612V21.7578H181.381C181.55 24.0505 182.782 25.1109 184.864 25.1109C186.946 25.1109 188.198 24.3043 188.77 23.2855V25.3439C188.239 26.0016 186.944 26.6385 184.864 26.6385C181.508 26.6385 179.575 24.7924 179.575 21.0793C179.575 17.3662 181.827 15.6055 184.82 15.6055C187.813 15.6055 189.514 17.4724 189.514 20.612ZM181.402 20.252H187.751V20.2312C187.751 18.1935 186.499 17.1332 184.82 17.1332C182.825 17.1332 181.635 18.1947 181.402 20.2532" fill="#21A19A"/>
<path d="M196.581 26.6385C193.226 26.6385 191.293 24.7924 191.293 21.0793C191.293 17.3662 193.544 15.6055 196.538 15.6055C197.961 15.6055 199.235 16.0935 199.935 16.6232V19.127C199.215 17.9385 197.983 17.132 196.538 17.132C194.308 17.132 193.076 18.4693 193.076 21.0793V21.1428C193.076 23.8589 194.33 25.1109 196.581 25.1109C198.344 25.1109 199.512 24.3043 200.043 23.2855V25.3439C199.554 26.0016 198.387 26.6385 196.581 26.6385Z" fill="#21A19A"/>
<path d="M95.9986 9.89979L100.482 6.59863H85.479V26.4263H100.482V23.1252H89.7608V18.0482H98.9051V14.7471H89.7608V9.89979H95.9986Z" fill="#21A19A"/>
<path d="M74.1545 14.3281H68.9444V9.90076H77.2619L81.7446 6.59961H64.6626V26.4273H73.6026C78.6164 26.4273 81.4929 24.1565 81.4929 20.1988C81.4929 16.2411 78.8866 14.3292 74.1545 14.3292M73.4086 23.125H68.9432V17.6292H73.4086C76.1256 17.6292 77.3924 18.5488 77.3924 20.3777C77.3924 22.2065 76.0517 23.125 73.4086 23.125Z" fill="#21A19A"/>
<path d="M112.637 6.59961H104.469V26.4261H108.751V20.8104H112.637C117.85 20.8104 121.088 18.0711 121.088 13.6946C121.088 9.31807 117.85 6.59961 112.637 6.59961ZM112.545 17.5081H108.749V9.89961H112.545C115.289 9.89961 116.799 11.2508 116.799 13.7038C116.799 16.1569 115.289 17.5081 112.545 17.5081Z" fill="#21A19A"/>
<path d="M57.3141 22.1327C56.2159 22.7373 54.9376 23.0581 53.6178 23.0581C49.7575 23.0581 46.9561 20.305 46.9561 16.5123C46.9561 12.7196 49.7575 9.96656 53.6178 9.96656C55.0785 9.96656 56.3868 10.3762 57.5115 11.1839L60.5831 8.92233L60.3799 8.74464C58.5866 7.17079 56.1905 6.33887 53.4515 6.33887C50.4804 6.33887 47.7841 7.3404 45.858 9.15771C43.9215 10.9866 42.8545 13.5596 42.8545 16.4027C42.8545 19.2458 43.9168 21.8708 45.8464 23.755C47.7817 25.645 50.4723 26.6869 53.4226 26.6869C56.373 26.6869 59.2044 25.6116 61.0312 23.6546C59.6212 22.6162 58.2598 21.6135 58.2598 21.6135L57.3106 22.1327H57.3141Z" fill="#21A19A"/>
<path d="M-0.0418138 16.5129C-0.0418138 25.6121 7.33925 32.9886 16.4455 32.9886C25.5517 32.9886 32.9339 25.6121 32.9339 16.5129C32.9339 15.5056 32.8439 14.519 32.6707 13.5613L29.121 16.1748C29.1245 16.2879 29.1256 16.3998 29.1256 16.5129C29.1256 23.4994 23.4374 29.1833 16.4455 29.1833C9.45357 29.1833 3.7665 23.4994 3.7665 16.5129C3.7665 9.52634 9.45472 3.84365 16.4455 3.84365C19.0956 3.84365 21.5575 4.66057 23.5933 6.05442L26.8 3.69249C23.9697 1.40672 20.367 0.0371094 16.4443 0.0371094C7.33809 0.0371094 -0.0429688 7.41364 -0.0429688 16.5129" fill="#21A19A"/>
<path d="M29.4932 6.43945C30.2715 7.44561 30.9378 8.54292 31.469 9.71407L16.4459 20.7783L10.1699 16.846V12.1164L16.4459 16.0487L29.4932 6.44061V6.43945Z" fill="#21A19A"/>
</g>
<defs>
<clipPath id="clip0_2098_4942">
<rect width="200" height="33" fill="white"/>
</clipPath>
</defs>
</svg>
