<svg width="14" height="13" viewBox="0 0 14 13" fill="none" xmlns="http://www.w3.org/2000/svg">
<path d="M0.000490335 6.5C0.000490335 10.0898 3.13404 13 7 13C10.866 13 14 10.0898 14 6.5C14 6.1026 13.9618 5.71339 13.8882 5.33556L12.3813 6.36662C12.3827 6.41123 12.3832 6.45539 12.3832 6.5C12.3832 9.25632 9.96835 11.4987 7 11.4987C4.03166 11.4987 1.61727 9.25632 1.61727 6.5C1.61727 3.74368 4.03215 1.50175 7 1.50175C8.12508 1.50175 9.17025 1.82404 10.0345 2.37394L11.3959 1.44212C10.1943 0.540339 8.66482 0 6.99951 0C3.13355 0 0 2.91018 0 6.5" fill="white"/>
</svg>
